{
    "asset" : {
        "generator" : "Khronos glTF Blender I/O v3.4.50",
        "version" : "2.0"
    },
    "scene" : 0,
    "scenes" : [
        {
            "name" : "Scene",
            "nodes" : [
                0,
                1
            ]
        }
    ],
    "nodes" : [
        {
            "mesh" : 0,
            "name" : "ciambella"
        },
        {
            "mesh" : 1,
            "name" : "topping"
        }
    ],
    "materials" : [
        {
            "doubleSided" : true,
            "name" : "Material.001",
            "pbrMetallicRoughness" : {
                "baseColorFactor" : [
                    0.8000000715255737,
                    0.5380838513374329,
                    0.22486662864685059,
                    1
                ],
                "metallicFactor" : 0,
                "roughnessFactor" : 0.9370370507240295
            }
        },
        {
            "doubleSided" : true,
            "name" : "Material",
            "pbrMetallicRoughness" : {
                "baseColorFactor" : [
                    0.8000000715255737,
                    0.05882943794131279,
                    0.08722487092018127,
                    1
                ],
                "metallicFactor" : 0.15555556118488312,
                "roughnessFactor" : 0.19629628956317902
            }
        }
    ],
    "meshes" : [
        {
            "name" : "Torus",
            "primitives" : [
                {
                    "attributes" : {
                        "POSITION" : 0,
                        "TEXCOORD_0" : 1,
                        "NORMAL" : 2
                    },
                    "indices" : 3,
                    "material" : 0
                }
            ]
        },
        {
            "name" : "Torus.002",
            "primitives" : [
                {
                    "attributes" : {
                        "POSITION" : 4,
                        "TEXCOORD_0" : 5,
                        "NORMAL" : 6
                    },
                    "indices" : 7,
                    "material" : 1
                }
            ]
        }
    ],
    "accessors" : [
        {
            "bufferView" : 0,
            "componentType" : 5126,
            "count" : 10465,
            "max" : [
                0.050993259996175766,
                0.02092212811112404,
                0.04942002892494202
            ],
            "min" : [
                -0.05303547903895378,
                -0.02164025790989399,
                -0.0515003465116024
            ],
            "type" : "VEC3"
        },
        {
            "bufferView" : 1,
            "componentType" : 5126,
            "count" : 10465,
            "type" : "VEC2"
        },
        {
            "bufferView" : 2,
            "componentType" : 5126,
            "count" : 10465,
            "type" : "VEC3"
        },
        {
            "bufferView" : 3,
            "componentType" : 5123,
            "count" : 61440,
            "type" : "SCALAR"
        },
        {
            "bufferView" : 4,
            "componentType" : 5126,
            "count" : 44856,
            "max" : [
                0.05292913690209389,
                0.023241952061653137,
                0.05153411254286766
            ],
            "min" : [
                -0.0550621822476387,
                -0.014971394091844559,
                -0.053632304072380066
            ],
            "type" : "VEC3"
        },
        {
            "bufferView" : 5,
            "componentType" : 5126,
            "count" : 44856,
            "type" : "VEC2"
        },
        {
            "bufferView" : 6,
            "componentType" : 5126,
            "count" : 44856,
            "type" : "VEC3"
        },
        {
            "bufferView" : 7,
            "componentType" : 5123,
            "count" : 268320,
            "type" : "SCALAR"
        }
    ],
    "bufferViews" : [
        {
            "buffer" : 0,
            "byteLength" : 125580,
            "byteOffset" : 0,
            "target" : 34962
        },
        {
            "buffer" : 0,
            "byteLength" : 83720,
            "byteOffset" : 125580,
            "target" : 34962
        },
        {
            "buffer" : 0,
            "byteLength" : 125580,
            "byteOffset" : 209300,
            "target" : 34962
        },
        {
            "buffer" : 0,
            "byteLength" : 122880,
            "byteOffset" : 334880,
            "target" : 34963
        },
        {
            "buffer" : 0,
            "byteLength" : 538272,
            "byteOffset" : 457760,
            "target" : 34962
        },
        {
            "buffer" : 0,
            "byteLength" : 358848,
            "byteOffset" : 996032,
            "target" : 34962
        },
        {
            "buffer" : 0,
            "byteLength" : 538272,
            "byteOffset" : 1354880,
            "target" : 34962
        },
        {
            "buffer" : 0,
            "byteLength" : 536640,
            "byteOffset" : 1893152,
            "target" : 34963
        }
    ],
    "buffers" : [
        {
            "byteLength" : 2429792,
            "uri" : "data:application/octet-stream;base64,"
        }
    ]
}
