{
  "accessors": [
    {
      "bufferView": 2,
      "componentType": 5126,
      "count": 65532,
      "max": [
        9.157367706298828,
        49.93007278442383,
        3.529996871948242
      ],
      "min": [
        -36.52922058105469,
        8.761487007141113,
        -9.877408027648926
      ],
      "type": "VEC3"
    },
    {
      "bufferView": 2,
      "byteOffset": 786384,
      "componentType": 5126,
      "count": 65532,
      "max": [
        0.9999974370002747,
        0.9999921917915344,
        1.0
      ],
      "min": [
        -0.9988835453987122,
        -0.9989322423934937,
        -0.9999980926513672
      ],
      "type": "VEC3"
    },
    {
      "bufferView": 1,
      "componentType": 5126,
      "count": 65532,
      "max": [
        0.9996339678764343,
        0.9558104276657104
      ],
      "min": [
        0.000244140625,
        0.0002559019485488534
      ],
      "type": "VEC2"
    },
    {
      "bufferView": 1,
      "byteOffset": 524256,
      "componentType": 5126,
      "count": 65532,
      "max": [
        0.9996339678764343,
        0.9558104276657104
      ],
      "min": [
        0.000244140625,
        0.0002559019485488534
      ],
      "type": "VEC2"
    },
    {
      "bufferView": 0,
      "componentType": 5125,
      "count": 287523,
      "type": "SCALAR"
    },
    {
      "bufferView": 2,
      "byteOffset": 1572768,
      "componentType": 5126,
      "count": 65532,
      "max": [
        10.536346435546875,
        49.93007278442383,
        3.529996871948242
      ],
      "min": [
        -22.79369354248047,
        12.089277267456055,
        -9.860577583312988
      ],
      "type": "VEC3"
    },
    {
      "bufferView": 2,
      "byteOffset": 2359152,
      "componentType": 5126,
      "count": 65532,
      "max": [
        0.9993684887886047,
        0.9970580339431763,
        0.9538084268569946
      ],
      "min": [
        -0.9998294115066528,
        -0.9987968802452087,
        -0.9999979138374329
      ],
      "type": "VEC3"
    },
    {
      "bufferView": 1,
      "byteOffset": 1048512,
      "componentType": 5126,
      "count": 65532,
      "max": [
        0.9997252821922302,
        0.9548338651657104
      ],
      "min": [
        0.000244140625,
        0.0002451135078445077
      ],
      "type": "VEC2"
    },
    {
      "bufferView": 1,
      "byteOffset": 1572768,
      "componentType": 5126,
      "count": 65532,
      "max": [
        0.9997252821922302,
        0.9548338651657104
      ],
      "min": [
        0.000244140625,
        0.0002451135078445077
      ],
      "type": "VEC2"
    },
    {
      "bufferView": 0,
      "byteOffset": 1150092,
      "componentType": 5125,
      "count": 290670,
      "type": "SCALAR"
    },
    {
      "bufferView": 2,
      "byteOffset": 3145536,
      "componentType": 5126,
      "count": 65532,
      "max": [
        4.855680465698242,
        44.39017868041992,
        1.970571517944336
      ],
      "min": [
        -35.94500732421875,
        21.30983543395996,
        -6.5897216796875
      ],
      "type": "VEC3"
    },
    {
      "bufferView": 2,
      "byteOffset": 3931920,
      "componentType": 5126,
      "count": 65532,
      "max": [
        0.9966111779212952,
        0.9998483657836914,
        0.9473254084587097
      ],
      "min": [
        -0.9990022778511047,
        -0.9998689293861389,
        -0.9999995231628418
      ],
      "type": "VEC3"
    },
    {
      "bufferView": 1,
      "byteOffset": 2097024,
      "componentType": 5126,
      "count": 65532,
      "max": [
        0.9997202754020691,
        0.9548338651657104
      ],
      "min": [
        0.000244140625,
        0.00024469627533107996
      ],
      "type": "VEC2"
    },
    {
      "bufferView": 1,
      "byteOffset": 2621280,
      "componentType": 5126,
      "count": 65532,
      "max": [
        0.9997202754020691,
        0.9548338651657104
      ],
      "min": [
        0.000244140625,
        0.00024469627533107996
      ],
      "type": "VEC2"
    },
    {
      "bufferView": 0,
      "byteOffset": 2312772,
      "componentType": 5125,
      "count": 239682,
      "type": "SCALAR"
    },
    {
      "bufferView": 2,
      "byteOffset": 4718304,
      "componentType": 5126,
      "count": 65532,
      "max": [
        17.815664291381836,
        38.381866455078125,
        3.529996871948242
      ],
      "min": [
        -36.52922058105469,
        -16.688514709472656,
        -9.076461791992188
      ],
      "type": "VEC3"
    },
    {
      "bufferView": 2,
      "byteOffset": 5504688,
      "componentType": 5126,
      "count": 65532,
      "max": [
        0.9992350935935974,
        0.9999237060546875,
        1.0
      ],
      "min": [
        -0.9998452067375183,
        -0.9999851584434509,
        -0.9999998211860657
      ],
      "type": "VEC3"
    },
    {
      "bufferView": 1,
      "byteOffset": 3145536,
      "componentType": 5126,
      "count": 65532,
      "max": [
        0.9997045993804932,
        0.9558104276657104
      ],
      "min": [
        0.000244140625,
        0.00027706159744411707
      ],
      "type": "VEC2"
    },
    {
      "bufferView": 1,
      "byteOffset": 3669792,
      "componentType": 5126,
      "count": 65532,
      "max": [
        0.9997045993804932,
        0.9558104276657104
      ],
      "min": [
        0.000244140625,
        0.00027706159744411707
      ],
      "type": "VEC2"
    },
    {
      "bufferView": 0,
      "byteOffset": 3271500,
      "componentType": 5125,
      "count": 260379,
      "type": "SCALAR"
    },
    {
      "bufferView": 2,
      "byteOffset": 6291072,
      "componentType": 5126,
      "count": 65532,
      "max": [
        6.593297958374023,
        19.656169891357422,
        2.7024898529052734
      ],
      "min": [
        -18.64529037475586,
        -4.513785362243652,
        -9.721731185913086
      ],
      "type": "VEC3"
    },
    {
      "bufferView": 2,
      "byteOffset": 7077456,
      "componentType": 5126,
      "count": 65532,
      "max": [
        0.999920129776001,
        0.9971489906311035,
        0.9823508858680725
      ],
      "min": [
        -0.9915030002593994,
        -0.9999164342880249,
        -0.9999976754188538
      ],
      "type": "VEC3"
    },
    {
      "bufferView": 1,
      "byteOffset": 4194048,
      "componentType": 5126,
      "count": 65532,
      "max": [
        0.9997346997261047,
        0.9597166776657104
      ],
      "min": [
        0.000244140625,
        0.0002534581581130624
      ],
      "type": "VEC2"
    },
    {
      "bufferView": 1,
      "byteOffset": 4718304,
      "componentType": 5126,
      "count": 65532,
      "max": [
        0.9997346997261047,
        0.9597166776657104
      ],
      "min": [
        0.000244140625,
        0.0002534581581130624
      ],
      "type": "VEC2"
    },
    {
      "bufferView": 0,
      "byteOffset": 4313016,
      "componentType": 5125,
      "count": 251496,
      "type": "SCALAR"
    },
    {
      "bufferView": 2,
      "byteOffset": 7863840,
      "componentType": 5126,
      "count": 65532,
      "max": [
        17.74410629272461,
        33.34175109863281,
        3.529996871948242
      ],
      "min": [
        -48.320594787597656,
        -0.6625003814697266,
        -9.235892295837402
      ],
      "type": "VEC3"
    },
    {
      "bufferView": 2,
      "byteOffset": 8650224,
      "componentType": 5126,
      "count": 65532,
      "max": [
        0.9995098114013672,
        0.9997559189796448,
        1.0
      ],
      "min": [
        -0.999913215637207,
        -0.9993822574615479,
        -0.9999977350234985
      ],
      "type": "VEC3"
    },
    {
      "bufferView": 1,
      "byteOffset": 5242560,
      "componentType": 5126,
      "count": 65532,
      "max": [
        0.9996967911720276,
        0.9616698026657104
      ],
      "min": [
        0.000244140625,
        0.00028939975891262293
      ],
      "type": "VEC2"
    },
    {
      "bufferView": 1,
      "byteOffset": 5766816,
      "componentType": 5126,
      "count": 65532,
      "max": [
        0.9996967911720276,
        0.9616698026657104
      ],
      "min": [
        0.000244140625,
        0.00028939975891262293
      ],
      "type": "VEC2"
    },
    {
      "bufferView": 0,
      "byteOffset": 5319000,
      "componentType": 5125,
      "count": 243879,
      "type": "SCALAR"
    },
    {
      "bufferView": 2,
      "byteOffset": 9436608,
      "componentType": 5126,
      "count": 65533,
      "max": [
        -8.74583625793457,
        21.842693328857422,
        3.529996871948242
      ],
      "min": [
        -33.600921630859375,
        -16.688514709472656,
        -9.499550819396973
      ],
      "type": "VEC3"
    },
    {
      "bufferView": 2,
      "byteOffset": 10223004,
      "componentType": 5126,
      "count": 65533,
      "max": [
        0.9996257424354553,
        0.9999845623970032,
        0.9818191528320313
      ],
      "min": [
        -0.9990720748901367,
        -0.9999955892562866,
        -0.9999985694885254
      ],
      "type": "VEC3"
    },
    {
      "bufferView": 1,
      "byteOffset": 6291072,
      "componentType": 5126,
      "count": 65533,
      "max": [
        0.9997417330741882,
        0.9548338651657104
      ],
      "min": [
        0.000244140625,
        0.00024857057724148035
      ],
      "type": "VEC2"
    },
    {
      "bufferView": 1,
      "byteOffset": 6815336,
      "componentType": 5126,
      "count": 65533,
      "max": [
        0.9997417330741882,
        0.9548338651657104
      ],
      "min": [
        0.000244140625,
        0.00024857057724148035
      ],
      "type": "VEC2"
    },
    {
      "bufferView": 0,
      "byteOffset": 6294516,
      "componentType": 5125,
      "count": 296535,
      "type": "SCALAR"
    },
    {
      "bufferView": 2,
      "byteOffset": 11009400,
      "componentType": 5126,
      "count": 65532,
      "max": [
        -4.269431114196777,
        38.60831832885742,
        3.529996871948242
      ],
      "min": [
        -48.320594787597656,
        -14.768702507019043,
        -8.969551086425781
      ],
      "type": "VEC3"
    },
    {
      "bufferView": 2,
      "byteOffset": 11795784,
      "componentType": 5126,
      "count": 65532,
      "max": [
        0.9999408721923828,
        0.9999200105667114,
        1.0
      ],
      "min": [
        -0.9997414350509644,
        -0.9999884366989136,
        -0.9999983310699463
      ],
      "type": "VEC3"
    },
    {
      "bufferView": 1,
      "byteOffset": 7339600,
      "componentType": 5126,
      "count": 65532,
      "max": [
        0.9997125864028931,
        0.9577635526657104
      ],
      "min": [
        0.000244140625,
        0.00024415983352810144
      ],
      "type": "VEC2"
    },
    {
      "bufferView": 1,
      "byteOffset": 7863856,
      "componentType": 5126,
      "count": 65532,
      "max": [
        0.9997125864028931,
        0.9577635526657104
      ],
      "min": [
        0.000244140625,
        0.00024415983352810144
      ],
      "type": "VEC2"
    },
    {
      "bufferView": 0,
      "byteOffset": 7480656,
      "componentType": 5125,
      "count": 224247,
      "type": "SCALAR"
    },
    {
      "bufferView": 2,
      "byteOffset": 12582168,
      "componentType": 5126,
      "count": 65532,
      "max": [
        -5.069350719451904,
        49.93007278442383,
        3.529996871948242
      ],
      "min": [
        -48.320594787597656,
        3.90576171875,
        -7.367406845092773
      ],
      "type": "VEC3"
    },
    {
      "bufferView": 2,
      "byteOffset": 13368552,
      "componentType": 5126,
      "count": 65532,
      "max": [
        0.9993684887886047,
        0.9990414977073669,
        0.887844979763031
      ],
      "min": [
        -0.998323917388916,
        -0.9998691082000732,
        -0.9999997019767761
      ],
      "type": "VEC3"
    },
    {
      "bufferView": 1,
      "byteOffset": 8388112,
      "componentType": 5126,
      "count": 65532,
      "max": [
        0.9997510313987732,
        0.9558104276657104
      ],
      "min": [
        0.000244140625,
        0.0002564383903518319
      ],
      "type": "VEC2"
    },
    {
      "bufferView": 1,
      "byteOffset": 8912368,
      "componentType": 5126,
      "count": 65532,
      "max": [
        0.9997510313987732,
        0.9558104276657104
      ],
      "min": [
        0.000244140625,
        0.0002564383903518319
      ],
      "type": "VEC2"
    },
    {
      "bufferView": 0,
      "byteOffset": 8377644,
      "componentType": 5125,
      "count": 253905,
      "type": "SCALAR"
    },
    {
      "bufferView": 2,
      "byteOffset": 14154936,
      "componentType": 5126,
      "count": 65532,
      "max": [
        -6.138828277587891,
        49.93007278442383,
        3.529996871948242
      ],
      "min": [
        -48.19721221923828,
        -16.688514709472656,
        -9.076461791992188
      ],
      "type": "VEC3"
    },
    {
      "bufferView": 2,
      "byteOffset": 14941320,
      "componentType": 5126,
      "count": 65532,
      "max": [
        0.9996239542961121,
        0.9999845623970032,
        1.0
      ],
      "min": [
        -0.9999706149101257,
        -0.999971330165863,
        -0.9999943375587463
      ],
      "type": "VEC3"
    },
    {
      "bufferView": 1,
      "byteOffset": 9436624,
      "componentType": 5126,
      "count": 65532,
      "max": [
        0.9997392892837524,
        0.9548338651657104
      ],
      "min": [
        0.000244140625,
        0.00024916662368923426
      ],
      "type": "VEC2"
    },
    {
      "bufferView": 1,
      "byteOffset": 9960880,
      "componentType": 5126,
      "count": 65532,
      "max": [
        0.9997392892837524,
        0.9548338651657104
      ],
      "min": [
        0.000244140625,
        0.00024916662368923426
      ],
      "type": "VEC2"
    },
    {
      "bufferView": 0,
      "byteOffset": 9393264,
      "componentType": 5125,
      "count": 220956,
      "type": "SCALAR"
    },
    {
      "bufferView": 2,
      "byteOffset": 15727704,
      "componentType": 5126,
      "count": 65534,
      "max": [
        -21.103496551513672,
        29.091819763183594,
        3.529996871948242
      ],
      "min": [
        -44.648887634277344,
        0.13688373565673828,
        -7.784305572509766
      ],
      "type": "VEC3"
    },
    {
      "bufferView": 2,
      "byteOffset": 16514112,
      "componentType": 5126,
      "count": 65534,
      "max": [
        0.9994606971740723,
        0.9986329674720764,
        0.982294499874115
      ],
      "min": [
        -0.9999219179153442,
        -0.9999953508377075,
        -0.9999991059303284
      ],
      "type": "VEC3"
    },
    {
      "bufferView": 1,
      "byteOffset": 10485136,
      "componentType": 5126,
      "count": 65534,
      "max": [
        0.9997454285621643,
        0.9567869901657104
      ],
      "min": [
        0.000244140625,
        0.00024934543762356043
      ],
      "type": "VEC2"
    },
    {
      "bufferView": 1,
      "byteOffset": 11009408,
      "componentType": 5126,
      "count": 65534,
      "max": [
        0.9997454285621643,
        0.9567869901657104
      ],
      "min": [
        0.000244140625,
        0.00024934543762356043
      ],
      "type": "VEC2"
    },
    {
      "bufferView": 0,
      "byteOffset": 10277088,
      "componentType": 5125,
      "count": 246267,
      "type": "SCALAR"
    },
    {
      "bufferView": 2,
      "byteOffset": 17300520,
      "componentType": 5126,
      "count": 51324,
      "max": [
        -14.878231048583984,
        20.822689056396484,
        3.529996871948242
      ],
      "min": [
        -44.3524284362793,
        -0.23743915557861328,
        -9.461457252502441
      ],
      "type": "VEC3"
    },
    {
      "bufferView": 2,
      "byteOffset": 17916408,
      "componentType": 5126,
      "count": 51324,
      "max": [
        0.9999842643737793,
        0.9863312840461731,
        0.985219419002533
      ],
      "min": [
        -0.9997831583023071,
        -0.9997979998588562,
        -0.9999902844429016
      ],
      "type": "VEC3"
    },
    {
      "bufferView": 1,
      "byteOffset": 11533680,
      "componentType": 5126,
      "count": 51324,
      "max": [
        0.9997221827507019,
        0.9567869901657104
      ],
      "min": [
        0.000244140625,
        0.00025113357696682215
      ],
      "type": "VEC2"
    },
    {
      "bufferView": 1,
      "byteOffset": 11944272,
      "componentType": 5126,
      "count": 51324,
      "max": [
        0.9997221827507019,
        0.9567869901657104
      ],
      "min": [
        0.000244140625,
        0.00025113357696682215
      ],
      "type": "VEC2"
    },
    {
      "bufferView": 0,
      "byteOffset": 11262156,
      "componentType": 5125,
      "count": 183951,
      "type": "SCALAR"
    }
  ],
  "asset": {
    "extras": {
      "author": "alban (https://sketchfab.com/alban)",
      "license": "CC-BY-4.0 (http://creativecommons.org/licenses/by/4.0/)",
      "source": "https://sketchfab.com/3d-models/kiosk-bun-301d9a6a0edb4004bb8c044fd836ff86",
      "title": "Kiosk bun"
    },
    "generator": "Sketchfab-13.85.0",
    "version": "2.0"
  },
  "bufferViews": [
    {
      "buffer": 0,
      "byteLength": 11997960,
      "name": "floatBufferViews",
      "target": 34963
    },
    {
      "buffer": 0,
      "byteLength": 12354864,
      "byteOffset": 11997960,
      "byteStride": 8,
      "name": "floatBufferViews",
      "target": 34962
    },
    {
      "buffer": 0,
      "byteLength": 18532296,
      "byteOffset": 24352824,
      "byteStride": 12,
      "name": "floatBufferViews",
      "target": 34962
    }
  ],
  "buffers": [
    {
      "byteLength": 42885120,
      "uri": "scene.bin"
    }
  ],
  "extensionsUsed": [
    "KHR_materials_unlit"
  ],
  "images": [
    {
      "uri": "textures/tex_u1_v1_baseColor.jpeg"
    }
  ],
  "materials": [
    {
      "doubleSided": true,
      "extensions": {
        "KHR_materials_unlit": {}
      },
      "name": "tex_u1_v1",
      "pbrMetallicRoughness": {
        "baseColorTexture": {
          "index": 0
        },
        "metallicFactor": 0.0
      }
    }
  ],
  "meshes": [
    {
      "name": "model_tex_u1_v1_0",
      "primitives": [
        {
          "attributes": {
            "NORMAL": 1,
            "POSITION": 0,
            "TEXCOORD_0": 2,
            "TEXCOORD_1": 3
          },
          "indices": 4,
          "material": 0,
          "mode": 4
        }
      ]
    },
    {
      "name": "model_tex_u1_v1_0",
      "primitives": [
        {
          "attributes": {
            "NORMAL": 6,
            "POSITION": 5,
            "TEXCOORD_0": 7,
            "TEXCOORD_1": 8
          },
          "indices": 9,
          "material": 0,
          "mode": 4
        }
      ]
    },
    {
      "name": "model_tex_u1_v1_0",
      "primitives": [
        {
          "attributes": {
            "NORMAL": 11,
            "POSITION": 10,
            "TEXCOORD_0": 12,
            "TEXCOORD_1": 13
          },
          "indices": 14,
          "material": 0,
          "mode": 4
        }
      ]
    },
    {
      "name": "model_tex_u1_v1_0",
      "primitives": [
        {
          "attributes": {
            "NORMAL": 16,
            "POSITION": 15,
            "TEXCOORD_0": 17,
            "TEXCOORD_1": 18
          },
          "indices": 19,
          "material": 0,
          "mode": 4
        }
      ]
    },
    {
      "name": "model_tex_u1_v1_0",
      "primitives": [
        {
          "attributes": {
            "NORMAL": 21,
            "POSITION": 20,
            "TEXCOORD_0": 22,
            "TEXCOORD_1": 23
          },
          "indices": 24,
          "material": 0,
          "mode": 4
        }
      ]
    },
    {
      "name": "model_tex_u1_v1_0",
      "primitives": [
        {
          "attributes": {
            "NORMAL": 26,
            "POSITION": 25,
            "TEXCOORD_0": 27,
            "TEXCOORD_1": 28
          },
          "indices": 29,
          "material": 0,
          "mode": 4
        }
      ]
    },
    {
      "name": "model_tex_u1_v1_0",
      "primitives": [
        {
          "attributes": {
            "NORMAL": 31,
            "POSITION": 30,
            "TEXCOORD_0": 32,
            "TEXCOORD_1": 33
          },
          "indices": 34,
          "material": 0,
          "mode": 4
        }
      ]
    },
    {
      "name": "model_tex_u1_v1_0",
      "primitives": [
        {
          "attributes": {
            "NORMAL": 36,
            "POSITION": 35,
            "TEXCOORD_0": 37,
            "TEXCOORD_1": 38
          },
          "indices": 39,
          "material": 0,
          "mode": 4
        }
      ]
    },
    {
      "name": "model_tex_u1_v1_0",
      "primitives": [
        {
          "attributes": {
            "NORMAL": 41,
            "POSITION": 40,
            "TEXCOORD_0": 42,
            "TEXCOORD_1": 43
          },
          "indices": 44,
          "material": 0,
          "mode": 4
        }
      ]
    },
    {
      "name": "model_tex_u1_v1_0",
      "primitives": [
        {
          "attributes": {
            "NORMAL": 46,
            "POSITION": 45,
            "TEXCOORD_0": 47,
            "TEXCOORD_1": 48
          },
          "indices": 49,
          "material": 0,
          "mode": 4
        }
      ]
    },
    {
      "name": "model_tex_u1_v1_0",
      "primitives": [
        {
          "attributes": {
            "NORMAL": 51,
            "POSITION": 50,
            "TEXCOORD_0": 52,
            "TEXCOORD_1": 53
          },
          "indices": 54,
          "material": 0,
          "mode": 4
        }
      ]
    },
    {
      "name": "model_tex_u1_v1_0",
      "primitives": [
        {
          "attributes": {
            "NORMAL": 56,
            "POSITION": 55,
            "TEXCOORD_0": 57,
            "TEXCOORD_1": 58
          },
          "indices": 59,
          "material": 0,
          "mode": 4
        }
      ]
    }
  ],
  "nodes": [
    {
      "children": [
        1
      ],
      "matrix": [
        0.006749268155544996,
        0.0,
        0.0,
        0.0,
        0.0,
        1.4986385811310834e-18,
        -0.006749268155544996,
        0.0,
        0.0,
        0.006749268155544996,
        1.4986385811310834e-18,
        0.0,
        0.0,
        0.0,
        0.0,
        1.0
      ],
      "name": "Sketchfab_model"
    },
    {
      "children": [
        2
      ],
      "matrix": [
        1.0,
        0.0,
        0.0,
        0.0,
        0.0,
        -1.0,
        0.0,
        0.0,
        0.0,
        0.0,
        -1.0,
        0.0,
        0.0,
        0.0,
        0.0,
        1.0
      ],
      "name": "model.fbx"
    },
    {
      "children": [
        3
      ],
      "name": "RootNode"
    },
    {
      "children": [
        4,
        5,
        6,
        7,
        8,
        9,
        10,
        11,
        12,
        13,
        14,
        15
      ],
      "name": "model"
    },
    {
      "mesh": 0,
      "name": "model_tex_u1_v1_0"
    },
    {
      "mesh": 1,
      "name": "model_tex_u1_v1_0"
    },
    {
      "mesh": 2,
      "name": "model_tex_u1_v1_0"
    },
    {
      "mesh": 3,
      "name": "model_tex_u1_v1_0"
    },
    {
      "mesh": 4,
      "name": "model_tex_u1_v1_0"
    },
    {
      "mesh": 5,
      "name": "model_tex_u1_v1_0"
    },
    {
      "mesh": 6,
      "name": "model_tex_u1_v1_0"
    },
    {
      "mesh": 7,
      "name": "model_tex_u1_v1_0"
    },
    {
      "mesh": 8,
      "name": "model_tex_u1_v1_0"
    },
    {
      "mesh": 9,
      "name": "model_tex_u1_v1_0"
    },
    {
      "mesh": 10,
      "name": "model_tex_u1_v1_0"
    },
    {
      "mesh": 11,
      "name": "model_tex_u1_v1_0"
    }
  ],
  "samplers": [
    {
      "magFilter": 9729,
      "minFilter": 9987,
      "wrapS": 10497,
      "wrapT": 10497
    }
  ],
  "scene": 0,
  "scenes": [
    {
      "name": "Sketchfab_Scene",
      "nodes": [
        0
      ]
    }
  ],
  "textures": [
    {
      "sampler": 0,
      "source": 0
    }
  ]
}
